<svg width="10" height="10" viewBox="0 0 68 66" fill="none" xmlns="http://www.w3.org/2000/svg">
<g filter="url(#filter0_d_2013_24)">
<path d="M34 12.2041C42.7803 12.2041 49.892 19.3158 49.892 28.0962C49.8912 31.4259 48.8461 34.6716 46.904 37.3764C44.9619 40.0811 42.2204 42.1087 39.0656 43.1737C38.271 43.3327 37.973 42.836 37.973 42.4189C37.973 41.8825 37.9928 40.1741 37.9928 38.0486C37.9928 36.5587 37.4962 35.6052 36.9201 35.1085C40.4561 34.7112 44.1709 33.3604 44.1709 27.2618C44.1709 25.5137 43.5551 24.1033 42.5419 22.9908C42.7009 22.5935 43.2571 20.9646 42.383 18.7794C42.383 18.7794 41.0521 18.3424 38.0127 20.4084C36.7413 20.0508 35.3905 19.872 34.0397 19.872C32.6889 19.872 31.338 20.0508 30.0667 20.4084C27.0273 18.3623 25.6964 18.7794 25.6964 18.7794C24.8223 20.9646 25.3785 22.5935 25.5374 22.9908C24.5243 24.1033 23.9085 25.5336 23.9085 27.2618C23.9085 33.3405 27.6034 34.7112 31.1394 35.1085C30.6825 35.5058 30.2653 36.2011 30.1263 37.2341C29.2125 37.6513 26.928 38.3267 25.4977 35.923C25.1997 35.4462 24.3058 34.2742 23.0543 34.2941C21.7234 34.3139 22.518 35.0489 23.0742 35.3469C23.7496 35.7243 24.5243 37.1348 24.7031 37.5917C25.021 38.4856 26.0539 40.194 30.0468 39.459C30.0468 40.7899 30.0667 42.0414 30.0667 42.4189C30.0667 42.836 29.7687 43.3128 28.9741 43.1737C25.8089 42.1202 23.0558 40.0967 21.1053 37.3903C19.1549 34.6839 18.1062 31.4321 18.1079 28.0962C18.1079 19.3158 25.2196 12.2041 34 12.2041Z" fill="url(#paint0_linear_2013_24)"/>
</g>
<defs>
<filter id="filter0_d_2013_24" x="0.891518" y="0.28506" width="66.217" height="65.4328" filterUnits="userSpaceOnUse" color-interpolation-filters="sRGB">
<feFlood flood-opacity="0" result="BackgroundImageFix"/>
<feColorMatrix in="SourceAlpha" type="matrix" values="0 0 0 0 0 0 0 0 0 0 0 0 0 0 0 0 0 0 127 0" result="hardAlpha"/>
<feOffset dy="5.29735"/>
<feGaussianBlur stdDeviation="8.6082"/>
<feComposite in2="hardAlpha" operator="out"/>
<feColorMatrix type="matrix" values="0 0 0 0 1 0 0 0 0 1 0 0 0 0 1 0 0 0 0.46 0"/>
<feBlend mode="normal" in2="BackgroundImageFix" result="effect1_dropShadow_2013_24"/>
<feBlend mode="normal" in="SourceGraphic" in2="effect1_dropShadow_2013_24" result="shape"/>
</filter>
<linearGradient id="paint0_linear_2013_24" x1="18.1079" y1="12.2041" x2="46.4633" y2="46.0745" gradientUnits="userSpaceOnUse">
<stop offset="0.395" stop-color="#FFCC76"/>
<stop offset="1" stop-color="#C18437"/>
</linearGradient>
</defs>
</svg>
