<svg width="143" height="33" viewBox="0 0 143 33" fill="none" xmlns="http://www.w3.org/2000/svg">
<path d="M16.3271 16.509V8.66049H3.61641L7.45584 11.2098L0.550526 18.1126C0.321805 18.3413 -0.0611064 18.1306 0.00828085 17.8145L3.50591 1.91964C3.6858 1.09984 4.41308 0.516479 5.25344 0.516479H30.8342C31.3816 0.516479 31.654 1.17695 31.2685 1.565L16.3271 16.5064V16.509Z" fill="url(#paint0_linear_69_192)"/>
<path d="M16.3426 16.491V24.3394H29.0534L25.2139 21.7901L32.1192 14.8873C32.348 14.6586 32.7309 14.8694 32.6615 15.1855L29.1639 31.0803C28.984 31.9001 28.2567 32.4834 27.4163 32.4834H1.83554C1.28815 32.4834 1.01574 31.823 1.40123 31.4349L16.3426 16.4935V16.491Z" fill="url(#paint1_linear_69_192)"/>
<path d="M143 7.47577L134.426 22.7304V32.4834H129.531V22.7304L120.993 7.47577H126.566L131.997 17.9075L137.427 7.47577H143Z" fill="white"/>
<path d="M116.879 32.4834L115.379 27.9821H105.411L103.911 32.4834H98.5879L107.341 7.47577H113.45L122.238 32.4834H116.879ZM106.983 23.3735H113.843L110.413 13.1561L106.983 23.3735Z" fill="white"/>
<path d="M89.8155 7.47577C92.221 7.47577 94.2454 8.28554 95.8888 9.90509C97.5322 11.5246 98.3538 13.5133 98.3538 15.8712C98.3538 18.2291 97.5322 20.2178 95.8888 21.8373C94.2454 23.4569 92.221 24.2666 89.8155 24.2666H85.4213V32.4834H80.4912V7.47577H89.8155ZM89.8155 19.6581C90.8634 19.6581 91.7328 19.3008 92.4234 18.5863C93.1141 17.848 93.4595 16.943 93.4595 15.8712C93.4595 14.7756 93.1141 13.8706 92.4234 13.1561C91.7328 12.4416 90.8634 12.0843 89.8155 12.0843H85.4213V19.6581H89.8155Z" fill="white"/>
<path d="M58.3681 32.4834V28.8037L66.9064 20.0153C68.8118 18.0147 69.7644 16.3475 69.7644 15.0138C69.7644 14.0373 69.4548 13.2513 68.8356 12.6559C68.2402 12.0605 67.4661 11.7628 66.5134 11.7628C64.6319 11.7628 63.2386 12.7393 62.3336 14.6922L58.1895 12.2629C58.9754 10.5481 60.1067 9.23818 61.5834 8.33314C63.06 7.4281 64.6795 6.97559 66.442 6.97559C68.7046 6.97559 70.6456 7.69009 72.2652 9.1191C73.8847 10.5243 74.6945 12.4296 74.6945 14.8351C74.6945 17.4312 73.325 20.0987 70.5861 22.8376L65.6918 27.7319H75.0875V32.4834H58.3681Z" fill="white"/>
<path d="M45.6 27.7677H55.1386V32.4834H40.6699V7.47577H45.6V27.7677Z" fill="white"/>
<defs>
<linearGradient id="paint0_linear_69_192" x1="0" y1="0.516479" x2="12.8745" y2="27.1782" gradientUnits="userSpaceOnUse">
<stop offset="0.395" stop-color="#FFCC76"/>
<stop offset="1" stop-color="#C18437"/>
</linearGradient>
<linearGradient id="paint1_linear_69_192" x1="1.2207" y1="14.7911" x2="14.0952" y2="41.4528" gradientUnits="userSpaceOnUse">
<stop offset="0.395" stop-color="#FFCC76"/>
<stop offset="1" stop-color="#C18437"/>
</linearGradient>
</defs>
</svg>
