<svg width="32" height="32" viewBox="0 0 32 32" fill="none" xmlns="http://www.w3.org/2000/svg">
<path d="M16 0C7.2 0 0 7.2 0 16C0 24.8 7.2 32 16 32C24.8 32 32 24.8 32 16C32 7.2 24.8 0 16 0ZM22.4 20.16C23.04 20.8 23.04 21.76 22.4 22.4C22.08 22.72 21.76 22.88 21.28 22.88C20.8 22.88 20.48 22.72 20.16 22.4L16 18.24L11.84 22.4C11.52 22.72 11.04 22.88 10.72 22.88C10.24 22.88 9.92 22.72 9.6 22.4C8.96 21.76 8.96 20.8 9.6 20.16L13.76 16L9.6 11.84C8.96 11.2 8.96 10.24 9.6 9.6C10.24 8.96 11.2 8.96 11.84 9.6L16 13.76L20.16 9.6C20.8 8.96 21.76 8.96 22.4 9.6C23.04 10.24 23.04 11.2 22.4 11.84L18.24 16L22.4 20.16Z" fill="#343434"/>
<path d="M22.4 20.16C23.04 20.8 23.04 21.76 22.4 22.4C22.08 22.72 21.76 22.88 21.28 22.88C20.8 22.88 20.48 22.72 20.16 22.4L16 18.24L11.84 22.4C11.52 22.72 11.04 22.88 10.72 22.88C10.24 22.88 9.92 22.72 9.6 22.4C8.96 21.76 8.96 20.8 9.6 20.16L13.76 16L9.6 11.84C8.96 11.2 8.96 10.24 9.6 9.6C10.24 8.96 11.2 8.96 11.84 9.6L16 13.76L20.16 9.6C20.8 8.96 21.76 8.96 22.4 9.6C23.04 10.24 23.04 11.2 22.4 11.84L18.24 16L22.4 20.16Z" fill="#121212"/>
</svg>
