<svg width="14" height="17" viewBox="0 0 14 17" fill="none" xmlns="http://www.w3.org/2000/svg">
<path d="M1.49103 16.264C1.21133 16.1801 0.933133 16.0953 0.697964 15.9063C0.249438 15.5465 0.00261466 15.0816 0.00201702 14.4982C-0.000971158 11.5768 -7.47044e-05 8.65548 0.00112057 5.73412C0.00141938 4.81219 0.712307 4.0349 1.62101 3.98142C2.02681 3.95772 2.43499 3.97747 2.8626 3.97747C2.8626 4.03764 2.8626 4.09659 2.8626 4.15554C2.8626 6.29354 2.86051 8.43153 2.8635 10.5692C2.86529 11.8834 3.70586 12.971 4.96 13.2745C5.18471 13.3289 5.42197 13.3493 5.65356 13.3502C7.52236 13.356 9.39117 13.3535 11.26 13.3535C11.3185 13.3535 11.3771 13.3535 11.4683 13.3535C11.4506 13.8647 11.4916 14.373 11.4031 14.8568C11.2677 15.5973 10.7783 16.0491 10.056 16.2312C10.0238 16.2394 9.99269 16.253 9.96102 16.2643C7.13779 16.264 4.31456 16.264 1.49103 16.264Z" fill="#FFCC76" fill-opacity="0.7"/>
<path d="M13.9993 6.55428C13.9993 7.88339 14.0014 9.2128 13.9984 10.5419C13.9963 11.3821 13.5329 12.053 12.784 12.2931C12.6209 12.3454 12.4443 12.3776 12.2736 12.3779C10.0271 12.3833 7.78062 12.3833 5.53411 12.3806C4.6003 12.3794 3.81889 11.5796 3.818 10.6273C3.8162 7.91317 3.8162 5.19935 3.818 2.48522C3.81859 1.53534 4.60329 0.738599 5.53919 0.737688C7.7857 0.735257 10.0322 0.735257 12.2787 0.737992C13.1692 0.738903 13.924 1.46332 13.9889 2.36975C13.9957 2.46547 13.9987 2.56149 13.9987 2.65751C13.9996 3.95654 13.9996 5.25556 13.9993 6.55428Z" fill="#FFCC76"/>
</svg>
