<svg width="16" height="12" viewBox="0 0 24 18" fill="none" xmlns="http://www.w3.org/2000/svg">
<path d="M8.76799 18.0009C8.44265 18.0032 8.12008 17.941 7.81898 17.8177C7.51788 17.6944 7.24425 17.5126 7.01394 17.2828L0.733763 11.0407C0.267453 10.5748 0.00378537 9.94382 4.04409e-05 9.28472C-0.00370449 8.62561 0.252776 7.99165 0.713763 7.52055C0.941123 7.28761 1.21242 7.10207 1.51195 6.97465C1.81148 6.84724 2.13331 6.78049 2.4588 6.77825C2.7843 6.77602 3.10701 6.83836 3.40827 6.96165C3.70952 7.08494 3.98333 7.26675 4.21386 7.49655L8.73199 11.9867L19.7643 0.742357C19.9917 0.509416 20.263 0.323872 20.5625 0.196458C20.862 0.0690434 21.1839 0.00228988 21.5094 5.78866e-05C21.8349 -0.0021741 22.1576 0.0601603 22.4588 0.183455C22.7601 0.306749 23.0339 0.488556 23.2644 0.718357C23.7315 1.18366 23.9958 1.81461 24 2.47388C24.0041 3.13315 23.7476 3.76736 23.2864 4.23846L10.512 17.2588C10.032 17.7528 9.40201 17.9989 8.76799 18.0009Z" fill="#1ED025"/>
</svg>