<svg width="160" height="160" viewBox="0 0 160 160" fill="none" xmlns="http://www.w3.org/2000/svg">
<rect width="160" height="160" rx="16" fill="black" fill-opacity="0.99"/>
<path d="M21 21H24.5758V24.5758H21V21ZM24.5758 21H28.1515V24.5758H24.5758V21ZM28.1515 21H31.7273V24.5758H28.1515V21ZM31.7273 21H35.303V24.5758H31.7273V21ZM35.303 21H38.8788V24.5758H35.303V21ZM38.8788 21H42.4545V24.5758H38.8788V21ZM42.4545 21H46.0303V24.5758H42.4545V21ZM53.1818 21H56.7576V24.5758H53.1818V21ZM63.9091 21H67.4848V24.5758H63.9091V21ZM67.4848 21H71.0606V24.5758H67.4848V21ZM71.0606 21H74.6364V24.5758H71.0606V21ZM78.2121 21H81.7879V24.5758H78.2121V21ZM85.3636 21H88.9394V24.5758H85.3636V21ZM88.9394 21H92.5151V24.5758H88.9394V21ZM92.5151 21H96.0909V24.5758H92.5151V21ZM96.0909 21H99.6667V24.5758H96.0909V21ZM99.6667 21H103.242V24.5758H99.6667V21ZM103.242 21H106.818V24.5758H103.242V21ZM113.97 21H117.545V24.5758H113.97V21ZM117.545 21H121.121V24.5758H117.545V21ZM121.121 21H124.697V24.5758H121.121V21ZM124.697 21H128.273V24.5758H124.697V21ZM128.273 21H131.848V24.5758H128.273V21ZM131.848 21H135.424V24.5758H131.848V21ZM135.424 21H139V24.5758H135.424V21ZM21 24.5758H24.5758V28.1515H21V24.5758ZM42.4545 24.5758H46.0303V28.1515H42.4545V24.5758ZM49.6061 24.5758H53.1818V28.1515H49.6061V24.5758ZM67.4848 24.5758H71.0606V28.1515H67.4848V24.5758ZM71.0606 24.5758H74.6364V28.1515H71.0606V24.5758ZM74.6364 24.5758H78.2121V28.1515H74.6364V24.5758ZM78.2121 24.5758H81.7879V28.1515H78.2121V24.5758ZM81.7879 24.5758H85.3636V28.1515H81.7879V24.5758ZM103.242 24.5758H106.818V28.1515H103.242V24.5758ZM113.97 24.5758H117.545V28.1515H113.97V24.5758ZM135.424 24.5758H139V28.1515H135.424V24.5758ZM21 28.1515H24.5758V31.7273H21V28.1515ZM28.1515 28.1515H31.7273V31.7273H28.1515V28.1515ZM31.7273 28.1515H35.303V31.7273H31.7273V28.1515ZM35.303 28.1515H38.8788V31.7273H35.303V28.1515ZM42.4545 28.1515H46.0303V31.7273H42.4545V28.1515ZM49.6061 28.1515H53.1818V31.7273H49.6061V28.1515ZM53.1818 28.1515H56.7576V31.7273H53.1818V28.1515ZM56.7576 28.1515H60.3333V31.7273H56.7576V28.1515ZM60.3333 28.1515H63.9091V31.7273H60.3333V28.1515ZM63.9091 28.1515H67.4848V31.7273H63.9091V28.1515ZM67.4848 28.1515H71.0606V31.7273H67.4848V28.1515ZM71.0606 28.1515H74.6364V31.7273H71.0606V28.1515ZM85.3636 28.1515H88.9394V31.7273H85.3636V28.1515ZM106.818 28.1515H110.394V31.7273H106.818V28.1515ZM113.97 28.1515H117.545V31.7273H113.97V28.1515ZM121.121 28.1515H124.697V31.7273H121.121V28.1515ZM124.697 28.1515H128.273V31.7273H124.697V28.1515ZM128.273 28.1515H131.848V31.7273H128.273V28.1515ZM135.424 28.1515H139V31.7273H135.424V28.1515ZM21 31.7273H24.5758V35.303H21V31.7273ZM28.1515 31.7273H31.7273V35.303H28.1515V31.7273ZM31.7273 31.7273H35.303V35.303H31.7273V31.7273ZM35.303 31.7273H38.8788V35.303H35.303V31.7273ZM42.4545 31.7273H46.0303V35.303H42.4545V31.7273ZM56.7576 31.7273H60.3333V35.303H56.7576V31.7273ZM63.9091 31.7273H67.4848V35.303H63.9091V31.7273ZM67.4848 31.7273H71.0606V35.303H67.4848V31.7273ZM71.0606 31.7273H74.6364V35.303H71.0606V31.7273ZM74.6364 31.7273H78.2121V35.303H74.6364V31.7273ZM78.2121 31.7273H81.7879V35.303H78.2121V31.7273ZM85.3636 31.7273H88.9394V35.303H85.3636V31.7273ZM96.0909 31.7273H99.6667V35.303H96.0909V31.7273ZM106.818 31.7273H110.394V35.303H106.818V31.7273ZM113.97 31.7273H117.545V35.303H113.97V31.7273ZM121.121 31.7273H124.697V35.303H121.121V31.7273ZM124.697 31.7273H128.273V35.303H124.697V31.7273ZM128.273 31.7273H131.848V35.303H128.273V31.7273ZM135.424 31.7273H139V35.303H135.424V31.7273ZM21 35.303H24.5758V38.8788H21V35.303ZM28.1515 35.303H31.7273V38.8788H28.1515V35.303ZM31.7273 35.303H35.303V38.8788H31.7273V35.303ZM35.303 35.303H38.8788V38.8788H35.303V35.303ZM42.4545 35.303H46.0303V38.8788H42.4545V35.303ZM53.1818 35.303H56.7576V38.8788H53.1818V35.303ZM56.7576 35.303H60.3333V38.8788H56.7576V35.303ZM71.0606 35.303H74.6364V38.8788H71.0606V35.303ZM74.6364 35.303H78.2121V38.8788H74.6364V35.303ZM78.2121 35.303H81.7879V38.8788H78.2121V35.303ZM85.3636 35.303H88.9394V38.8788H85.3636V35.303ZM99.6667 35.303H103.242V38.8788H99.6667V35.303ZM103.242 35.303H106.818V38.8788H103.242V35.303ZM106.818 35.303H110.394V38.8788H106.818V35.303ZM113.97 35.303H117.545V38.8788H113.97V35.303ZM121.121 35.303H124.697V38.8788H121.121V35.303ZM124.697 35.303H128.273V38.8788H124.697V35.303ZM128.273 35.303H131.848V38.8788H128.273V35.303ZM135.424 35.303H139V38.8788H135.424V35.303ZM21 38.8788H24.5758V42.4545H21V38.8788ZM42.4545 38.8788H46.0303V42.4545H42.4545V38.8788ZM53.1818 38.8788H56.7576V42.4545H53.1818V38.8788ZM56.7576 38.8788H60.3333V42.4545H56.7576V38.8788ZM60.3333 38.8788H63.9091V42.4545H60.3333V38.8788ZM63.9091 38.8788H67.4848V42.4545H63.9091V38.8788ZM71.0606 38.8788H74.6364V42.4545H71.0606V38.8788ZM78.2121 38.8788H81.7879V42.4545H78.2121V38.8788ZM81.7879 38.8788H85.3636V42.4545H81.7879V38.8788ZM85.3636 38.8788H88.9394V42.4545H85.3636V38.8788ZM96.0909 38.8788H99.6667V42.4545H96.0909V38.8788ZM103.242 38.8788H106.818V42.4545H103.242V38.8788ZM113.97 38.8788H117.545V42.4545H113.97V38.8788ZM135.424 38.8788H139V42.4545H135.424V38.8788ZM21 42.4545H24.5758V46.0303H21V42.4545ZM24.5758 42.4545H28.1515V46.0303H24.5758V42.4545ZM28.1515 42.4545H31.7273V46.0303H28.1515V42.4545ZM31.7273 42.4545H35.303V46.0303H31.7273V42.4545ZM35.303 42.4545H38.8788V46.0303H35.303V42.4545ZM38.8788 42.4545H42.4545V46.0303H38.8788V42.4545ZM42.4545 42.4545H46.0303V46.0303H42.4545V42.4545ZM49.6061 42.4545H53.1818V46.0303H49.6061V42.4545ZM56.7576 42.4545H60.3333V46.0303H56.7576V42.4545ZM63.9091 42.4545H67.4848V46.0303H63.9091V42.4545ZM71.0606 42.4545H74.6364V46.0303H71.0606V42.4545ZM78.2121 42.4545H81.7879V46.0303H78.2121V42.4545ZM85.3636 42.4545H88.9394V46.0303H85.3636V42.4545ZM92.5151 42.4545H96.0909V46.0303H92.5151V42.4545ZM99.6667 42.4545H103.242V46.0303H99.6667V42.4545ZM106.818 42.4545H110.394V46.0303H106.818V42.4545ZM113.97 42.4545H117.545V46.0303H113.97V42.4545ZM117.545 42.4545H121.121V46.0303H117.545V42.4545ZM121.121 42.4545H124.697V46.0303H121.121V42.4545ZM124.697 42.4545H128.273V46.0303H124.697V42.4545ZM128.273 42.4545H131.848V46.0303H128.273V42.4545ZM131.848 42.4545H135.424V46.0303H131.848V42.4545ZM135.424 42.4545H139V46.0303H135.424V42.4545ZM56.7576 46.0303H60.3333V49.6061H56.7576V46.0303ZM71.0606 46.0303H74.6364V49.6061H71.0606V46.0303ZM74.6364 46.0303H78.2121V49.6061H74.6364V46.0303ZM81.7879 46.0303H85.3636V49.6061H81.7879V46.0303ZM85.3636 46.0303H88.9394V49.6061H85.3636V46.0303ZM88.9394 46.0303H92.5151V49.6061H88.9394V46.0303ZM99.6667 46.0303H103.242V49.6061H99.6667V46.0303ZM106.818 46.0303H110.394V49.6061H106.818V46.0303ZM24.5758 49.6061H28.1515V53.1818H24.5758V49.6061ZM28.1515 49.6061H31.7273V53.1818H28.1515V49.6061ZM31.7273 49.6061H35.303V53.1818H31.7273V49.6061ZM38.8788 49.6061H42.4545V53.1818H38.8788V49.6061ZM42.4545 49.6061H46.0303V53.1818H42.4545V49.6061ZM56.7576 49.6061H60.3333V53.1818H56.7576V49.6061ZM60.3333 49.6061H63.9091V53.1818H60.3333V49.6061ZM63.9091 49.6061H67.4848V53.1818H63.9091V49.6061ZM78.2121 49.6061H81.7879V53.1818H78.2121V49.6061ZM81.7879 49.6061H85.3636V53.1818H81.7879V49.6061ZM85.3636 49.6061H88.9394V53.1818H85.3636V49.6061ZM96.0909 49.6061H99.6667V53.1818H96.0909V49.6061ZM103.242 49.6061H106.818V53.1818H103.242V49.6061ZM106.818 49.6061H110.394V53.1818H106.818V49.6061ZM128.273 49.6061H131.848V53.1818H128.273V49.6061ZM131.848 49.6061H135.424V53.1818H131.848V49.6061ZM35.303 53.1818H38.8788V56.7576H35.303V53.1818ZM38.8788 53.1818H42.4545V56.7576H38.8788V53.1818ZM49.6061 53.1818H53.1818V56.7576H49.6061V53.1818ZM53.1818 53.1818H56.7576V56.7576H53.1818V53.1818ZM56.7576 53.1818H60.3333V56.7576H56.7576V53.1818ZM60.3333 53.1818H63.9091V56.7576H60.3333V53.1818ZM63.9091 53.1818H67.4848V56.7576H63.9091V53.1818ZM67.4848 53.1818H71.0606V56.7576H67.4848V53.1818ZM71.0606 53.1818H74.6364V56.7576H71.0606V53.1818ZM81.7879 53.1818H85.3636V56.7576H81.7879V53.1818ZM85.3636 53.1818H88.9394V56.7576H85.3636V53.1818ZM88.9394 53.1818H92.5151V56.7576H88.9394V53.1818ZM92.5151 53.1818H96.0909V56.7576H92.5151V53.1818ZM103.242 53.1818H106.818V56.7576H103.242V53.1818ZM113.97 53.1818H117.545V56.7576H113.97V53.1818ZM117.545 53.1818H121.121V56.7576H117.545V53.1818ZM124.697 53.1818H128.273V56.7576H124.697V53.1818ZM128.273 53.1818H131.848V56.7576H128.273V53.1818ZM131.848 53.1818H135.424V56.7576H131.848V53.1818ZM135.424 53.1818H139V56.7576H135.424V53.1818ZM21 56.7576H24.5758V60.3333H21V56.7576ZM31.7273 56.7576H35.303V60.3333H31.7273V56.7576ZM38.8788 56.7576H42.4545V60.3333H38.8788V56.7576ZM42.4545 56.7576H46.0303V60.3333H42.4545V56.7576ZM49.6061 56.7576H53.1818V60.3333H49.6061V56.7576ZM53.1818 56.7576H56.7576V60.3333H53.1818V56.7576ZM56.7576 56.7576H60.3333V60.3333H56.7576V56.7576ZM67.4848 56.7576H71.0606V60.3333H67.4848V56.7576ZM78.2121 56.7576H81.7879V60.3333H78.2121V56.7576ZM85.3636 56.7576H88.9394V60.3333H85.3636V56.7576ZM92.5151 56.7576H96.0909V60.3333H92.5151V56.7576ZM96.0909 56.7576H99.6667V60.3333H96.0909V56.7576ZM99.6667 56.7576H103.242V60.3333H99.6667V56.7576ZM103.242 56.7576H106.818V60.3333H103.242V56.7576ZM110.394 56.7576H113.97V60.3333H110.394V56.7576ZM113.97 56.7576H117.545V60.3333H113.97V56.7576ZM117.545 56.7576H121.121V60.3333H117.545V56.7576ZM121.121 56.7576H124.697V60.3333H121.121V56.7576ZM124.697 56.7576H128.273V60.3333H124.697V56.7576ZM131.848 56.7576H135.424V60.3333H131.848V56.7576ZM135.424 56.7576H139V60.3333H135.424V56.7576ZM28.1515 60.3333H31.7273V63.9091H28.1515V60.3333ZM31.7273 60.3333H35.303V63.9091H31.7273V60.3333ZM35.303 60.3333H38.8788V63.9091H35.303V60.3333ZM38.8788 60.3333H42.4545V63.9091H38.8788V60.3333ZM49.6061 60.3333H53.1818V63.9091H49.6061V60.3333ZM53.1818 60.3333H56.7576V63.9091H53.1818V60.3333ZM56.7576 60.3333H60.3333V63.9091H56.7576V60.3333ZM60.3333 60.3333H63.9091V63.9091H60.3333V60.3333ZM63.9091 60.3333H67.4848V63.9091H63.9091V60.3333ZM67.4848 60.3333H71.0606V63.9091H67.4848V60.3333ZM78.2121 60.3333H81.7879V63.9091H78.2121V60.3333ZM81.7879 60.3333H85.3636V63.9091H81.7879V60.3333ZM92.5151 60.3333H96.0909V63.9091H92.5151V60.3333ZM96.0909 60.3333H99.6667V63.9091H96.0909V60.3333ZM99.6667 60.3333H103.242V63.9091H99.6667V60.3333ZM103.242 60.3333H106.818V63.9091H103.242V60.3333ZM106.818 60.3333H110.394V63.9091H106.818V60.3333ZM117.545 60.3333H121.121V63.9091H117.545V60.3333ZM124.697 60.3333H128.273V63.9091H124.697V60.3333ZM135.424 60.3333H139V63.9091H135.424V60.3333ZM21 63.9091H24.5758V67.4848H21V63.9091ZM28.1515 63.9091H31.7273V67.4848H28.1515V63.9091ZM42.4545 63.9091H46.0303V67.4848H42.4545V63.9091ZM46.0303 63.9091H49.6061V67.4848H46.0303V63.9091ZM49.6061 63.9091H53.1818V67.4848H49.6061V63.9091ZM60.3333 63.9091H63.9091V67.4848H60.3333V63.9091ZM63.9091 63.9091H67.4848V67.4848H63.9091V63.9091ZM67.4848 63.9091H71.0606V67.4848H67.4848V63.9091ZM71.0606 63.9091H74.6364V67.4848H71.0606V63.9091ZM74.6364 63.9091H78.2121V67.4848H74.6364V63.9091ZM88.9394 63.9091H92.5151V67.4848H88.9394V63.9091ZM92.5151 63.9091H96.0909V67.4848H92.5151V63.9091ZM96.0909 63.9091H99.6667V67.4848H96.0909V63.9091ZM99.6667 63.9091H103.242V67.4848H99.6667V63.9091ZM103.242 63.9091H106.818V67.4848H103.242V63.9091ZM110.394 63.9091H113.97V67.4848H110.394V63.9091ZM117.545 63.9091H121.121V67.4848H117.545V63.9091ZM121.121 63.9091H124.697V67.4848H121.121V63.9091ZM124.697 63.9091H128.273V67.4848H124.697V63.9091ZM21 67.4848H24.5758V71.0606H21V67.4848ZM38.8788 67.4848H42.4545V71.0606H38.8788V67.4848ZM46.0303 67.4848H49.6061V71.0606H46.0303V67.4848ZM49.6061 67.4848H53.1818V71.0606H49.6061V67.4848ZM56.7576 67.4848H60.3333V71.0606H56.7576V67.4848ZM60.3333 67.4848H63.9091V71.0606H60.3333V67.4848ZM67.4848 67.4848H71.0606V71.0606H67.4848V67.4848ZM78.2121 67.4848H81.7879V71.0606H78.2121V67.4848ZM81.7879 67.4848H85.3636V71.0606H81.7879V67.4848ZM92.5151 67.4848H96.0909V71.0606H92.5151V67.4848ZM96.0909 67.4848H99.6667V71.0606H96.0909V67.4848ZM103.242 67.4848H106.818V71.0606H103.242V67.4848ZM110.394 67.4848H113.97V71.0606H110.394V67.4848ZM117.545 67.4848H121.121V71.0606H117.545V67.4848ZM131.848 67.4848H135.424V71.0606H131.848V67.4848ZM28.1515 71.0606H31.7273V74.6364H28.1515V71.0606ZM31.7273 71.0606H35.303V74.6364H31.7273V71.0606ZM35.303 71.0606H38.8788V74.6364H35.303V71.0606ZM42.4545 71.0606H46.0303V74.6364H42.4545V71.0606ZM46.0303 71.0606H49.6061V74.6364H46.0303V71.0606ZM49.6061 71.0606H53.1818V74.6364H49.6061V71.0606ZM63.9091 71.0606H67.4848V74.6364H63.9091V71.0606ZM81.7879 71.0606H85.3636V74.6364H81.7879V71.0606ZM85.3636 71.0606H88.9394V74.6364H85.3636V71.0606ZM88.9394 71.0606H92.5151V74.6364H88.9394V71.0606ZM92.5151 71.0606H96.0909V74.6364H92.5151V71.0606ZM99.6667 71.0606H103.242V74.6364H99.6667V71.0606ZM106.818 71.0606H110.394V74.6364H106.818V71.0606ZM113.97 71.0606H117.545V74.6364H113.97V71.0606ZM124.697 71.0606H128.273V74.6364H124.697V71.0606ZM128.273 71.0606H131.848V74.6364H128.273V71.0606ZM31.7273 74.6364H35.303V78.2121H31.7273V74.6364ZM38.8788 74.6364H42.4545V78.2121H38.8788V74.6364ZM49.6061 74.6364H53.1818V78.2121H49.6061V74.6364ZM56.7576 74.6364H60.3333V78.2121H56.7576V74.6364ZM60.3333 74.6364H63.9091V78.2121H60.3333V74.6364ZM67.4848 74.6364H71.0606V78.2121H67.4848V74.6364ZM71.0606 74.6364H74.6364V78.2121H71.0606V74.6364ZM74.6364 74.6364H78.2121V78.2121H74.6364V74.6364ZM81.7879 74.6364H85.3636V78.2121H81.7879V74.6364ZM96.0909 74.6364H99.6667V78.2121H96.0909V74.6364ZM99.6667 74.6364H103.242V78.2121H99.6667V74.6364ZM106.818 74.6364H110.394V78.2121H106.818V74.6364ZM110.394 74.6364H113.97V78.2121H110.394V74.6364ZM113.97 74.6364H117.545V78.2121H113.97V74.6364ZM124.697 74.6364H128.273V78.2121H124.697V74.6364ZM128.273 74.6364H131.848V78.2121H128.273V74.6364ZM24.5758 78.2121H28.1515V81.7879H24.5758V78.2121ZM28.1515 78.2121H31.7273V81.7879H28.1515V78.2121ZM31.7273 78.2121H35.303V81.7879H31.7273V78.2121ZM42.4545 78.2121H46.0303V81.7879H42.4545V78.2121ZM46.0303 78.2121H49.6061V81.7879H46.0303V78.2121ZM49.6061 78.2121H53.1818V81.7879H49.6061V78.2121ZM53.1818 78.2121H56.7576V81.7879H53.1818V78.2121ZM63.9091 78.2121H67.4848V81.7879H63.9091V78.2121ZM67.4848 78.2121H71.0606V81.7879H67.4848V78.2121ZM78.2121 78.2121H81.7879V81.7879H78.2121V78.2121ZM81.7879 78.2121H85.3636V81.7879H81.7879V78.2121ZM85.3636 78.2121H88.9394V81.7879H85.3636V78.2121ZM92.5151 78.2121H96.0909V81.7879H92.5151V78.2121ZM96.0909 78.2121H99.6667V81.7879H96.0909V78.2121ZM99.6667 78.2121H103.242V81.7879H99.6667V78.2121ZM103.242 78.2121H106.818V81.7879H103.242V78.2121ZM110.394 78.2121H113.97V81.7879H110.394V78.2121ZM113.97 78.2121H117.545V81.7879H113.97V78.2121ZM121.121 78.2121H124.697V81.7879H121.121V78.2121ZM124.697 78.2121H128.273V81.7879H124.697V78.2121ZM128.273 78.2121H131.848V81.7879H128.273V78.2121ZM21 81.7879H24.5758V85.3636H21V81.7879ZM35.303 81.7879H38.8788V85.3636H35.303V81.7879ZM49.6061 81.7879H53.1818V85.3636H49.6061V81.7879ZM56.7576 81.7879H60.3333V85.3636H56.7576V81.7879ZM63.9091 81.7879H67.4848V85.3636H63.9091V81.7879ZM74.6364 81.7879H78.2121V85.3636H74.6364V81.7879ZM78.2121 81.7879H81.7879V85.3636H78.2121V81.7879ZM103.242 81.7879H106.818V85.3636H103.242V81.7879ZM113.97 81.7879H117.545V85.3636H113.97V81.7879ZM121.121 81.7879H124.697V85.3636H121.121V81.7879ZM124.697 81.7879H128.273V85.3636H124.697V81.7879ZM135.424 81.7879H139V85.3636H135.424V81.7879ZM28.1515 85.3636H31.7273V88.9394H28.1515V85.3636ZM38.8788 85.3636H42.4545V88.9394H38.8788V85.3636ZM42.4545 85.3636H46.0303V88.9394H42.4545V85.3636ZM46.0303 85.3636H49.6061V88.9394H46.0303V85.3636ZM49.6061 85.3636H53.1818V88.9394H49.6061V85.3636ZM53.1818 85.3636H56.7576V88.9394H53.1818V85.3636ZM56.7576 85.3636H60.3333V88.9394H56.7576V85.3636ZM60.3333 85.3636H63.9091V88.9394H60.3333V85.3636ZM74.6364 85.3636H78.2121V88.9394H74.6364V85.3636ZM85.3636 85.3636H88.9394V88.9394H85.3636V85.3636ZM96.0909 85.3636H99.6667V88.9394H96.0909V85.3636ZM117.545 85.3636H121.121V88.9394H117.545V85.3636ZM121.121 85.3636H124.697V88.9394H121.121V85.3636ZM128.273 85.3636H131.848V88.9394H128.273V85.3636ZM131.848 85.3636H135.424V88.9394H131.848V85.3636ZM35.303 88.9394H38.8788V92.5151H35.303V88.9394ZM49.6061 88.9394H53.1818V92.5151H49.6061V88.9394ZM63.9091 88.9394H67.4848V92.5151H63.9091V88.9394ZM67.4848 88.9394H71.0606V92.5151H67.4848V88.9394ZM71.0606 88.9394H74.6364V92.5151H71.0606V88.9394ZM74.6364 88.9394H78.2121V92.5151H74.6364V88.9394ZM78.2121 88.9394H81.7879V92.5151H78.2121V88.9394ZM81.7879 88.9394H85.3636V92.5151H81.7879V88.9394ZM88.9394 88.9394H92.5151V92.5151H88.9394V88.9394ZM92.5151 88.9394H96.0909V92.5151H92.5151V88.9394ZM99.6667 88.9394H103.242V92.5151H99.6667V88.9394ZM106.818 88.9394H110.394V92.5151H106.818V88.9394ZM110.394 88.9394H113.97V92.5151H110.394V88.9394ZM121.121 88.9394H124.697V92.5151H121.121V88.9394ZM131.848 88.9394H135.424V92.5151H131.848V88.9394ZM21 92.5151H24.5758V96.0909H21V92.5151ZM28.1515 92.5151H31.7273V96.0909H28.1515V92.5151ZM38.8788 92.5151H42.4545V96.0909H38.8788V92.5151ZM42.4545 92.5151H46.0303V96.0909H42.4545V92.5151ZM49.6061 92.5151H53.1818V96.0909H49.6061V92.5151ZM53.1818 92.5151H56.7576V96.0909H53.1818V92.5151ZM63.9091 92.5151H67.4848V96.0909H63.9091V92.5151ZM71.0606 92.5151H74.6364V96.0909H71.0606V92.5151ZM74.6364 92.5151H78.2121V96.0909H74.6364V92.5151ZM78.2121 92.5151H81.7879V96.0909H78.2121V92.5151ZM81.7879 92.5151H85.3636V96.0909H81.7879V92.5151ZM88.9394 92.5151H92.5151V96.0909H88.9394V92.5151ZM99.6667 92.5151H103.242V96.0909H99.6667V92.5151ZM124.697 92.5151H128.273V96.0909H124.697V92.5151ZM128.273 92.5151H131.848V96.0909H128.273V92.5151ZM135.424 92.5151H139V96.0909H135.424V92.5151ZM21 96.0909H24.5758V99.6667H21V96.0909ZM24.5758 96.0909H28.1515V99.6667H24.5758V96.0909ZM28.1515 96.0909H31.7273V99.6667H28.1515V96.0909ZM31.7273 96.0909H35.303V99.6667H31.7273V96.0909ZM38.8788 96.0909H42.4545V99.6667H38.8788V96.0909ZM60.3333 96.0909H63.9091V99.6667H60.3333V96.0909ZM71.0606 96.0909H74.6364V99.6667H71.0606V96.0909ZM78.2121 96.0909H81.7879V99.6667H78.2121V96.0909ZM92.5151 96.0909H96.0909V99.6667H92.5151V96.0909ZM96.0909 96.0909H99.6667V99.6667H96.0909V96.0909ZM99.6667 96.0909H103.242V99.6667H99.6667V96.0909ZM110.394 96.0909H113.97V99.6667H110.394V96.0909ZM113.97 96.0909H117.545V99.6667H113.97V96.0909ZM124.697 96.0909H128.273V99.6667H124.697V96.0909ZM135.424 96.0909H139V99.6667H135.424V96.0909ZM28.1515 99.6667H31.7273V103.242H28.1515V99.6667ZM31.7273 99.6667H35.303V103.242H31.7273V99.6667ZM35.303 99.6667H38.8788V103.242H35.303V99.6667ZM42.4545 99.6667H46.0303V103.242H42.4545V99.6667ZM53.1818 99.6667H56.7576V103.242H53.1818V99.6667ZM67.4848 99.6667H71.0606V103.242H67.4848V99.6667ZM71.0606 99.6667H74.6364V103.242H71.0606V99.6667ZM88.9394 99.6667H92.5151V103.242H88.9394V99.6667ZM92.5151 99.6667H96.0909V103.242H92.5151V99.6667ZM99.6667 99.6667H103.242V103.242H99.6667V99.6667ZM110.394 99.6667H113.97V103.242H110.394V99.6667ZM113.97 99.6667H117.545V103.242H113.97V99.6667ZM128.273 99.6667H131.848V103.242H128.273V99.6667ZM131.848 99.6667H135.424V103.242H131.848V99.6667ZM135.424 99.6667H139V103.242H135.424V99.6667ZM24.5758 103.242H28.1515V106.818H24.5758V103.242ZM31.7273 103.242H35.303V106.818H31.7273V103.242ZM38.8788 103.242H42.4545V106.818H38.8788V103.242ZM49.6061 103.242H53.1818V106.818H49.6061V103.242ZM53.1818 103.242H56.7576V106.818H53.1818V103.242ZM63.9091 103.242H67.4848V106.818H63.9091V103.242ZM74.6364 103.242H78.2121V106.818H74.6364V103.242ZM81.7879 103.242H85.3636V106.818H81.7879V103.242ZM85.3636 103.242H88.9394V106.818H85.3636V103.242ZM92.5151 103.242H96.0909V106.818H92.5151V103.242ZM99.6667 103.242H103.242V106.818H99.6667V103.242ZM103.242 103.242H106.818V106.818H103.242V103.242ZM106.818 103.242H110.394V106.818H106.818V103.242ZM113.97 103.242H117.545V106.818H113.97V103.242ZM117.545 103.242H121.121V106.818H117.545V103.242ZM121.121 103.242H124.697V106.818H121.121V103.242ZM124.697 103.242H128.273V106.818H124.697V103.242ZM21 106.818H24.5758V110.394H21V106.818ZM31.7273 106.818H35.303V110.394H31.7273V106.818ZM35.303 106.818H38.8788V110.394H35.303V106.818ZM38.8788 106.818H42.4545V110.394H38.8788V106.818ZM42.4545 106.818H46.0303V110.394H42.4545V106.818ZM53.1818 106.818H56.7576V110.394H53.1818V106.818ZM56.7576 106.818H60.3333V110.394H56.7576V106.818ZM60.3333 106.818H63.9091V110.394H60.3333V106.818ZM71.0606 106.818H74.6364V110.394H71.0606V106.818ZM74.6364 106.818H78.2121V110.394H74.6364V106.818ZM78.2121 106.818H81.7879V110.394H78.2121V106.818ZM81.7879 106.818H85.3636V110.394H81.7879V106.818ZM88.9394 106.818H92.5151V110.394H88.9394V106.818ZM92.5151 106.818H96.0909V110.394H92.5151V106.818ZM99.6667 106.818H103.242V110.394H99.6667V106.818ZM103.242 106.818H106.818V110.394H103.242V106.818ZM106.818 106.818H110.394V110.394H106.818V106.818ZM110.394 106.818H113.97V110.394H110.394V106.818ZM113.97 106.818H117.545V110.394H113.97V106.818ZM117.545 106.818H121.121V110.394H117.545V106.818ZM121.121 106.818H124.697V110.394H121.121V106.818ZM124.697 106.818H128.273V110.394H124.697V106.818ZM49.6061 110.394H53.1818V113.97H49.6061V110.394ZM53.1818 110.394H56.7576V113.97H53.1818V110.394ZM56.7576 110.394H60.3333V113.97H56.7576V110.394ZM60.3333 110.394H63.9091V113.97H60.3333V110.394ZM63.9091 110.394H67.4848V113.97H63.9091V110.394ZM67.4848 110.394H71.0606V113.97H67.4848V110.394ZM78.2121 110.394H81.7879V113.97H78.2121V110.394ZM85.3636 110.394H88.9394V113.97H85.3636V110.394ZM88.9394 110.394H92.5151V113.97H88.9394V110.394ZM96.0909 110.394H99.6667V113.97H96.0909V110.394ZM99.6667 110.394H103.242V113.97H99.6667V110.394ZM106.818 110.394H110.394V113.97H106.818V110.394ZM121.121 110.394H124.697V113.97H121.121V110.394ZM124.697 110.394H128.273V113.97H124.697V110.394ZM21 113.97H24.5758V117.545H21V113.97ZM24.5758 113.97H28.1515V117.545H24.5758V113.97ZM28.1515 113.97H31.7273V117.545H28.1515V113.97ZM31.7273 113.97H35.303V117.545H31.7273V113.97ZM35.303 113.97H38.8788V117.545H35.303V113.97ZM38.8788 113.97H42.4545V117.545H38.8788V113.97ZM42.4545 113.97H46.0303V117.545H42.4545V113.97ZM53.1818 113.97H56.7576V117.545H53.1818V113.97ZM56.7576 113.97H60.3333V117.545H56.7576V113.97ZM67.4848 113.97H71.0606V117.545H67.4848V113.97ZM71.0606 113.97H74.6364V117.545H71.0606V113.97ZM74.6364 113.97H78.2121V117.545H74.6364V113.97ZM78.2121 113.97H81.7879V117.545H78.2121V113.97ZM81.7879 113.97H85.3636V117.545H81.7879V113.97ZM85.3636 113.97H88.9394V117.545H85.3636V113.97ZM88.9394 113.97H92.5151V117.545H88.9394V113.97ZM92.5151 113.97H96.0909V117.545H92.5151V113.97ZM96.0909 113.97H99.6667V117.545H96.0909V113.97ZM103.242 113.97H106.818V117.545H103.242V113.97ZM106.818 113.97H110.394V117.545H106.818V113.97ZM113.97 113.97H117.545V117.545H113.97V113.97ZM121.121 113.97H124.697V117.545H121.121V113.97ZM131.848 113.97H135.424V117.545H131.848V113.97ZM21 117.545H24.5758V121.121H21V117.545ZM42.4545 117.545H46.0303V121.121H42.4545V117.545ZM49.6061 117.545H53.1818V121.121H49.6061V117.545ZM56.7576 117.545H60.3333V121.121H56.7576V117.545ZM63.9091 117.545H67.4848V121.121H63.9091V117.545ZM78.2121 117.545H81.7879V121.121H78.2121V117.545ZM81.7879 117.545H85.3636V121.121H81.7879V117.545ZM85.3636 117.545H88.9394V121.121H85.3636V117.545ZM92.5151 117.545H96.0909V121.121H92.5151V117.545ZM103.242 117.545H106.818V121.121H103.242V117.545ZM106.818 117.545H110.394V121.121H106.818V117.545ZM121.121 117.545H124.697V121.121H121.121V117.545ZM124.697 117.545H128.273V121.121H124.697V117.545ZM128.273 117.545H131.848V121.121H128.273V117.545ZM131.848 117.545H135.424V121.121H131.848V117.545ZM21 121.121H24.5758V124.697H21V121.121ZM28.1515 121.121H31.7273V124.697H28.1515V121.121ZM31.7273 121.121H35.303V124.697H31.7273V121.121ZM35.303 121.121H38.8788V124.697H35.303V121.121ZM42.4545 121.121H46.0303V124.697H42.4545V121.121ZM53.1818 121.121H56.7576V124.697H53.1818V121.121ZM56.7576 121.121H60.3333V124.697H56.7576V121.121ZM78.2121 121.121H81.7879V124.697H78.2121V121.121ZM81.7879 121.121H85.3636V124.697H81.7879V121.121ZM85.3636 121.121H88.9394V124.697H85.3636V121.121ZM99.6667 121.121H103.242V124.697H99.6667V121.121ZM103.242 121.121H106.818V124.697H103.242V121.121ZM106.818 121.121H110.394V124.697H106.818V121.121ZM110.394 121.121H113.97V124.697H110.394V121.121ZM113.97 121.121H117.545V124.697H113.97V121.121ZM117.545 121.121H121.121V124.697H117.545V121.121ZM121.121 121.121H124.697V124.697H121.121V121.121ZM128.273 121.121H131.848V124.697H128.273V121.121ZM131.848 121.121H135.424V124.697H131.848V121.121ZM21 124.697H24.5758V128.273H21V124.697ZM28.1515 124.697H31.7273V128.273H28.1515V124.697ZM31.7273 124.697H35.303V128.273H31.7273V124.697ZM35.303 124.697H38.8788V128.273H35.303V124.697ZM42.4545 124.697H46.0303V128.273H42.4545V124.697ZM49.6061 124.697H53.1818V128.273H49.6061V124.697ZM63.9091 124.697H67.4848V128.273H63.9091V124.697ZM71.0606 124.697H74.6364V128.273H71.0606V124.697ZM74.6364 124.697H78.2121V128.273H74.6364V124.697ZM88.9394 124.697H92.5151V128.273H88.9394V124.697ZM99.6667 124.697H103.242V128.273H99.6667V124.697ZM103.242 124.697H106.818V128.273H103.242V124.697ZM106.818 124.697H110.394V128.273H106.818V124.697ZM117.545 124.697H121.121V128.273H117.545V124.697ZM131.848 124.697H135.424V128.273H131.848V124.697ZM135.424 124.697H139V128.273H135.424V124.697ZM21 128.273H24.5758V131.848H21V128.273ZM28.1515 128.273H31.7273V131.848H28.1515V128.273ZM31.7273 128.273H35.303V131.848H31.7273V128.273ZM35.303 128.273H38.8788V131.848H35.303V128.273ZM42.4545 128.273H46.0303V131.848H42.4545V128.273ZM49.6061 128.273H53.1818V131.848H49.6061V128.273ZM60.3333 128.273H63.9091V131.848H60.3333V128.273ZM92.5151 128.273H96.0909V131.848H92.5151V128.273ZM96.0909 128.273H99.6667V131.848H96.0909V128.273ZM99.6667 128.273H103.242V131.848H99.6667V128.273ZM103.242 128.273H106.818V131.848H103.242V128.273ZM106.818 128.273H110.394V131.848H106.818V128.273ZM110.394 128.273H113.97V131.848H110.394V128.273ZM113.97 128.273H117.545V131.848H113.97V128.273ZM117.545 128.273H121.121V131.848H117.545V128.273ZM21 131.848H24.5758V135.424H21V131.848ZM42.4545 131.848H46.0303V135.424H42.4545V131.848ZM49.6061 131.848H53.1818V135.424H49.6061V131.848ZM56.7576 131.848H60.3333V135.424H56.7576V131.848ZM71.0606 131.848H74.6364V135.424H71.0606V131.848ZM74.6364 131.848H78.2121V135.424H74.6364V131.848ZM78.2121 131.848H81.7879V135.424H78.2121V131.848ZM81.7879 131.848H85.3636V135.424H81.7879V131.848ZM85.3636 131.848H88.9394V135.424H85.3636V131.848ZM92.5151 131.848H96.0909V135.424H92.5151V131.848ZM103.242 131.848H106.818V135.424H103.242V131.848ZM110.394 131.848H113.97V135.424H110.394V131.848ZM113.97 131.848H117.545V135.424H113.97V131.848ZM117.545 131.848H121.121V135.424H117.545V131.848ZM121.121 131.848H124.697V135.424H121.121V131.848ZM135.424 131.848H139V135.424H135.424V131.848ZM21 135.424H24.5758V139H21V135.424ZM24.5758 135.424H28.1515V139H24.5758V135.424ZM28.1515 135.424H31.7273V139H28.1515V135.424ZM31.7273 135.424H35.303V139H31.7273V135.424ZM35.303 135.424H38.8788V139H35.303V135.424ZM38.8788 135.424H42.4545V139H38.8788V135.424ZM42.4545 135.424H46.0303V139H42.4545V135.424ZM56.7576 135.424H60.3333V139H56.7576V135.424ZM60.3333 135.424H63.9091V139H60.3333V135.424ZM63.9091 135.424H67.4848V139H63.9091V135.424ZM67.4848 135.424H71.0606V139H67.4848V135.424ZM78.2121 135.424H81.7879V139H78.2121V135.424ZM85.3636 135.424H88.9394V139H85.3636V135.424ZM88.9394 135.424H92.5151V139H88.9394V135.424ZM96.0909 135.424H99.6667V139H96.0909V135.424ZM110.394 135.424H113.97V139H110.394V135.424ZM121.121 135.424H124.697V139H121.121V135.424ZM128.273 135.424H131.848V139H128.273V135.424Z" fill="white"/>
<g filter="url(#filter0_d_2048_62)">
<rect x="70" y="69.5" width="21" height="21" rx="10.5" fill="white" shape-rendering="crispEdges"/>
<path fill-rule="evenodd" clip-rule="evenodd" d="M80.5 90.9375C74.4591 90.9375 69.5625 86.0409 69.5625 80C69.5625 73.9591 74.4591 69.0625 80.5 69.0625C86.5409 69.0625 91.4375 73.9591 91.4375 80C91.4375 86.0409 86.5409 90.9375 80.5 90.9375ZM81.8139 78.4913V76.8739H85.5148V74.4075H75.438V76.8739H79.139V78.4906C76.1312 78.6287 73.8691 79.2248 73.8691 79.9385C73.8691 80.6521 76.1312 81.2476 79.139 81.3863V86.5693H81.8139V81.385C84.8169 81.2469 87.0734 80.6515 87.0734 79.9385C87.0734 79.2255 84.8169 78.6301 81.8139 78.4913ZM81.8139 80.9454V80.944C81.7387 80.9495 81.3511 80.9728 80.4863 80.9728C79.7959 80.9728 79.3099 80.9522 79.139 80.944V80.9461C76.4812 80.8292 74.4974 80.3664 74.4974 79.8127C74.4974 79.2597 76.4812 78.7969 79.139 78.6779V80.4854C79.3126 80.4977 79.8103 80.5271 80.4979 80.5271C81.323 80.5271 81.7366 80.4929 81.8139 80.486V78.6793C84.4662 78.7976 86.4452 79.2604 86.4452 79.8127C86.4452 80.3664 84.4662 80.8278 81.8139 80.9454Z" fill="#64B296"/>
</g>
<defs>
<filter id="filter0_d_2048_62" x="58" y="61.5" width="45" height="45" filterUnits="userSpaceOnUse" color-interpolation-filters="sRGB">
<feFlood flood-opacity="0" result="BackgroundImageFix"/>
<feColorMatrix in="SourceAlpha" type="matrix" values="0 0 0 0 0 0 0 0 0 0 0 0 0 0 0 0 0 0 127 0" result="hardAlpha"/>
<feOffset dy="4"/>
<feGaussianBlur stdDeviation="5"/>
<feComposite in2="hardAlpha" operator="out"/>
<feColorMatrix type="matrix" values="0 0 0 0 0 0 0 0 0 0 0 0 0 0 0 0 0 0 0.08 0"/>
<feBlend mode="normal" in2="BackgroundImageFix" result="effect1_dropShadow_2048_62"/>
<feBlend mode="normal" in="SourceGraphic" in2="effect1_dropShadow_2048_62" result="shape"/>
</filter>
</defs>
</svg>
